<?xml version="1.0" standalone="no"?>
<!DOCTYPE svg PUBLIC "-//W3C//DTD SVG 20010904//EN"
 "http://www.w3.org/TR/2001/REC-SVG-20010904/DTD/svg10.dtd">
<svg version="1.0" xmlns="http://www.w3.org/2000/svg"
 width="2084.000000pt" height="1251.000000pt" viewBox="0 0 2084.000000 1251.000000"
 preserveAspectRatio="xMidYMid meet">

<g transform="translate(0.000000,1251.000000) scale(0.100000,-0.100000)"
fill="#000000" stroke="none">
<path d="M18281 7245 c-162 -45 -289 -152 -355 -296 -58 -126 -61 -153 -61
-544 0 -318 2 -368 18 -425 62 -220 217 -371 425 -415 236 -51 468 35 607 225
41 56 89 164 100 223 l7 37 -119 0 -119 0 -24 -57 c-58 -141 -218 -228 -370
-204 -114 19 -191 79 -244 190 l-31 66 0 365 0 365 26 56 c36 76 90 133 157
166 50 24 69 28 147 28 79 0 97 -4 145 -29 71 -37 142 -112 171 -181 l23 -55
118 0 c136 0 132 -4 98 94 -62 182 -183 310 -355 376 -78 30 -280 38 -364 15z"/>
<path d="M7007 7243 c-4 -3 -7 -381 -7 -840 l0 -833 120 0 120 0 0 350 0 350
348 2 347 3 3 113 3 112 -351 0 -350 0 0 260 0 260 410 0 410 0 0 115 0 115
-523 0 c-288 0 -527 -3 -530 -7z"/>
<path d="M8673 7238 c-10 -13 -613 -1647 -613 -1661 0 -4 57 -6 126 -5 l127 3
61 178 61 177 340 -2 339 -3 61 -177 60 -178 128 0 c70 0 127 2 127 4 0 5
-588 1602 -605 1644 l-14 32 -94 0 c-64 0 -98 -4 -104 -12z m231 -701 c69
-202 126 -370 126 -373 0 -2 -115 -4 -255 -4 -140 0 -255 4 -255 9 0 4 45 140
101 302 56 162 112 327 126 367 14 40 26 72 28 70 1 -2 60 -169 129 -371z"/>
<path d="M9467 7243 c-4 -3 -7 -55 -7 -115 l0 -108 240 0 240 0 0 -725 0 -725
120 0 120 0 0 725 0 725 235 0 235 0 0 115 0 115 -588 0 c-324 0 -592 -3 -595
-7z"/>
<path d="M10877 7243 c-4 -3 -7 -381 -7 -840 l0 -833 120 0 120 0 0 355 0 355
360 0 360 0 0 -355 0 -355 120 0 120 0 -2 838 -3 837 -117 3 -118 3 0 -371 0
-370 -360 0 -360 0 0 370 0 370 -113 0 c-63 0 -117 -3 -120 -7z"/>
<path d="M12477 7243 c-4 -3 -7 -381 -7 -840 l0 -833 120 0 120 0 2 555 3 554
149 -337 c83 -185 171 -383 198 -440 l47 -103 83 3 82 3 196 449 195 449 3
-566 2 -567 115 0 115 0 0 840 0 841 -111 -3 -110 -3 -220 -495 c-121 -272
-231 -520 -245 -550 l-25 -55 -246 553 -245 552 -107 0 c-59 0 -111 -3 -114
-7z"/>
<path d="M14317 7243 c-4 -3 -7 -381 -7 -840 l0 -833 545 0 546 0 -3 113 -3
112 -422 3 -423 2 0 245 0 245 360 0 361 0 -3 113 -3 112 -357 3 -358 2 0 250
0 250 425 0 426 0 -3 113 -3 112 -536 3 c-294 1 -539 -1 -542 -5z"/>
<path d="M15728 7244 c-5 -4 -8 -383 -8 -841 l0 -834 353 4 c297 3 361 6 412
21 208 61 336 190 392 396 16 56 18 112 18 420 0 307 -2 364 -17 418 -31 109
-67 172 -142 248 -79 79 -139 112 -261 146 -73 19 -110 22 -410 26 -181 2
-333 0 -337 -4z m713 -252 c76 -30 142 -90 176 -160 l28 -57 0 -365 0 -365
-26 -56 c-32 -68 -85 -121 -158 -157 -55 -27 -59 -27 -278 -30 l-223 -4 0 612
0 612 213 -4 c189 -4 218 -7 268 -26z"/>
<path d="M17247 7243 c-4 -3 -7 -381 -7 -840 l0 -833 120 0 120 0 0 840 0 840
-113 0 c-63 0 -117 -3 -120 -7z"/>
<path d="M3022 5983 l3 -548 548 -3 547 -2 0 550 0 550 -550 0 -550 0 2 -547z"/>
</g>
</svg>
